# xmcd
#
# Track frame offsets: 
#        150
#        13910
#        29729
#        45248
#        60850
#        78104
#        93779
#        108319
#        125293
#        142823
#
# Disc length: 2105 seconds
#
# Revision: 0
# Processed by: cddbd v1.5.2PL0 Copyright (c) Steve Scherf et al.
# Submitted via: ExactAudioCopyFreeDBPlugin 1.0
#
DISCID=6c08370a
DTITLE=Andrea Faustini - Kelly
DYEAR=2015
DGENRE=Blues
TTITLE0=It'll All End in Tears
TTITLE1=Evaporate
TTITLE2=The River
TTITLE3=Kelly
TTITLE4=You Pulled Me Through
TTITLE5=Back To The Sea
TTITLE6=Give a Little Love
TTITLE7=What Would Dusty Do
TTITLE8=Lascia tutto Cosi
TTITLE9=I Didn't Know My Own Strength
EXTD=
EXTT0=
EXTT1=
EXTT2=
EXTT3=
EXTT4=
EXTT5=
EXTT6=
EXTT7=
EXTT8=
EXTT9=
PLAYORDER=
